<svg xmlns="http://www.w3.org/2000/svg" xmlns:xlink="http://www.w3.org/1999/xlink" width="500" zoomAndPan="magnify" viewBox="0 0 375 374.999991" height="500" preserveAspectRatio="xMidYMid meet" version="1.0"><path stroke-linecap="round" transform="matrix(-0.576319, -0.479955, 0.479955, -0.576319, 117.402134, 154.355716)" fill="none" stroke-linejoin="miter" d="M 18.496768 18.499655 L 69.228056 18.497811 " stroke="#067a96" stroke-width="37" stroke-opacity="1" stroke-miterlimit="4"/><path stroke-linecap="round" transform="matrix(0, -0.75, 0.75, 0, 173.840751, 112.622709)" fill="none" stroke-linejoin="miter" d="M 18.502155 18.498792 L 66.470909 18.498792 " stroke="#0e7e99" stroke-width="37" stroke-opacity="1" stroke-miterlimit="4"/><path stroke-linecap="round" transform="matrix(0.581913, -0.473156, 0.473156, 0.581913, 240.519891, 133.663599)" fill="none" stroke-linejoin="miter" d="M 18.500242 18.500515 L 70.484983 18.499245 " stroke="#22859d" stroke-width="37" stroke-opacity="1" stroke-miterlimit="4"/><path stroke-linecap="round" transform="matrix(0.305024, 0.685172, -0.685172, 0.305024, 236.215638, 259.602873)" fill="none" stroke-linejoin="miter" d="M 18.500835 18.49937 L 65.864629 18.501975 " stroke="#478796" stroke-width="37" stroke-opacity="1" stroke-miterlimit="4"/><path stroke-linecap="round" transform="matrix(-0.329527, 0.67373, -0.67373, -0.329527, 166.388269, 271.344563)" fill="none" stroke-linejoin="miter" d="M 18.498277 18.500689 L 66.494051 18.501462 " stroke="#568a96" stroke-width="37" stroke-opacity="1" stroke-miterlimit="4"/><path stroke-linecap="round" transform="matrix(-0.728504, 0.178276, -0.178276, -0.728504, 112.814697, 224.062485)" fill="none" stroke-linejoin="miter" d="M 18.500136 18.500654 L 68.056331 18.498902 " stroke="#5d8892" stroke-width="37" stroke-opacity="1" stroke-miterlimit="4"/><path stroke-linecap="round" transform="matrix(0.727062, 0.184066, -0.184066, 0.727062, 270.125963, 197.134996)" fill="none" stroke-linejoin="miter" d="M 18.501063 18.501535 L 66.434897 18.497825 " stroke="#3c8596" stroke-width="37" stroke-opacity="1" stroke-miterlimit="4"/></svg>